<svg xmlns="http://www.w3.org/2000/svg" viewBox="0 0 512 512" width="512" height="512">
  <rect width="512" height="512" rx="110" fill="#0a0f1d"/>
  <defs>
    <linearGradient id="gold" x1="0%" y1="0%" x2="100%" y2="100%">
      <stop offset="0%" stop-color="#fef08a"/>
      <stop offset="50%" stop-color="#caa348"/>
      <stop offset="100%" stop-color="#854d0e"/>
    </linearGradient>
  </defs>
  <!-- Beautiful Lotus / Crown Shape representing luxury and spa -->
  <g transform="translate(106, 110)">
    <path d="M150 10 C210 100, 250 170, 260 250 C220 250, 180 230, 150 230 C120 230, 80 250, 40 250 C50 170, 90 100, 150 10 Z" fill="url(#gold)"/>
    <path d="M150 70 C180 130, 200 180, 210 240 C180 235, 150 230, 150 230 C150 230, 120 235, 90 240 C100 180, 120 130, 150 70 Z" fill="#ffffff" opacity="0.15"/>
    <circle cx="150" cy="0" r="12" fill="url(#gold)"/>
    <circle cx="36" cy="180" r="10" fill="url(#gold)"/>
    <circle cx="264" cy="180" r="10" fill="url(#gold)"/>
    <!-- Elegant Serif 'L' in center of gold element representing LenaBeauty -->
    <text x="150" y="195" font-family="'Cairo', serif" font-weight="bold" font-size="75" fill="#000000" text-anchor="middle" opacity="0.3">L</text>
    <text x="150" y="193" font-family="'Cairo', serif" font-weight="bold" font-size="75" fill="url(#gold)" text-anchor="middle">L</text>
  </g>
</svg>
